<?xml version="1.0" encoding="UTF-8"?>
<!DOCTYPE svg PUBLIC "-//W3C//DTD SVG 1.1//EN" "http://www.w3.org/Graphics/SVG/1.1/DTD/svg11.dtd">
<!-- Creator: CorelDRAW 2020 (64-Bit) -->
<svg xmlns="http://www.w3.org/2000/svg" xml:space="preserve" width="937.112mm" height="535.514mm" version="1.1" style="shape-rendering:geometricPrecision; text-rendering:geometricPrecision; image-rendering:optimizeQuality; fill-rule:evenodd; clip-rule:evenodd"
viewBox="0 0 93711.2 53551.4"
 xmlns:xlink="http://www.w3.org/1999/xlink"
 xmlns:xodm="http://www.corel.com/coreldraw/odm/2003">
 <defs>
  <style type="text/css">
   <![CDATA[
    .fil5 {fill:#0E49A7}
    .fil0 {fill:white}
    .fil6 {fill:black;fill-rule:nonzero}
    .fil4 {fill:#1B6ECA;fill-rule:nonzero}
    .fil3 {fill:url(#id0)}
    .fil2 {fill:url(#id1)}
    .fil1 {fill:url(#id2)}
   ]]>
  </style>
  <linearGradient id="id0" gradientUnits="userSpaceOnUse" x1="46848.19" y1="62211.53" x2="46848.19" y2="32689.08">
   <stop offset="0" style="stop-opacity:1; stop-color:#043EB5"/>
   <stop offset="1" style="stop-opacity:1; stop-color:#038EDF"/>
  </linearGradient>
  <linearGradient id="id1" gradientUnits="userSpaceOnUse" x1="46848.19" y1="61174.55" x2="46848.19" y2="35405.69">
   <stop offset="0" style="stop-opacity:1; stop-color:#043FB5"/>
   <stop offset="1" style="stop-opacity:1; stop-color:#1C97E3"/>
  </linearGradient>
  <linearGradient id="id2" gradientUnits="userSpaceOnUse" x1="46848.19" y1="62319.8" x2="46848.19" y2="32676.54">
   <stop offset="0" style="stop-opacity:1; stop-color:#00378A"/>
   <stop offset="0.721569" style="stop-opacity:1; stop-color:#0762B0"/>
   <stop offset="1" style="stop-opacity:1; stop-color:#0F8DD6"/>
  </linearGradient>
 </defs>
 <g id="Layer_x0020_1">
  <metadata id="CorelCorpID_0Corel-Layer"/>
  <g id="_2212580274704">
   <rect class="fil0" x="-7.42" y="4.38" width="93711.23" height="53551.37"/>
   <path class="fil1" d="M93703.8 53007.98l0 -12468.39c-6414.49,-1093.45 -12936.01,-1501.78 -19437.17,-1183.19l0 0c-13124.78,643.4 -25968.74,4134.69 -39077.35,5053.54l0 0c-12316.15,863.03 -25579.52,-931.97 -35196.71,-8490.13l0 17285.04 0 350.91 5338.16 0 88008.17 -0.2c346.79,-60.61 361.03,-290.55 364.9,-547.58z"/>
   <path class="fil2" d="M26272.94 53555.7l62100.68 -0.38 4965.45 0.14 364.73 0.28 0 -73.03 -1935.53 -1145.38c-8201.53,-4628.17 -17608.72,-7131.89 -27029.82,-7081.48l0 0c-11229.59,59.86 -22235.21,3600.6 -33464.84,3541.17l0 0c-11197.18,-59.57 -22340.43,-3833.86 -31281.04,-10571.8l0 0 0 2402.6c7788.38,5983.46 16791.3,10363.92 26280.37,12927.88z"/>
   <path class="fil3" d="M93703.8 40539.59c-6414.49,-1093.45 -12936.01,-1501.78 -19437.17,-1183.19l0 0c-13124.78,643.4 -25968.74,4134.69 -39077.35,5053.54l0 0c-12316.15,863.03 -25579.52,-931.97 -35196.71,-8490.13l0 2305.41c8940.57,6738.38 20083.75,10512.8 31281.04,10572.4l0 0c11229.63,59.35 22235.25,-3481.69 33464.74,-3541.51l0 0c9421.2,-50.13 20763.94,3598.27 28965.45,8226.6l0 -264.31 0 -12678.81z"/>
   <polygon class="fil4" points="31689.2,6696.38 31495.53,6696.38 31495.53,7901.35 30798.33,7901.35 30798.33,4897.02 31495.53,4897.02 31495.53,6073.12 31639.9,6073.12 32318.8,4897.02 33195.59,4897.02 32250.49,6263.26 33275.88,7901.35 32380.77,7901.35 "/>
   <path id="1" class="fil4" d="M35064.67 7317.53l-892.99 0 -173.24 583.82 -734.54 0 979.62 -3004.33 373.95 0 0 2.11 2.12 -2.11 373.25 0 981.72 3004.33 -734.53 0 -175.36 -583.82zm-732.42 -536.64l571.85 0 -280.99 -932.43 -11.98 0 -278.88 932.43z"/>
   <path id="2" class="fil4" d="M36886.56 6749.9l0 1151.45 -697.2 0 0 -3004.33 1045.81 0c347.9,0 623.96,80.99 827.49,241.56 203.53,161.27 305.64,381 305.64,660.58 0,154.94 -41.55,288.75 -123.24,400.02 -81.69,111.27 -202.12,202.12 -361.98,272.54 184.51,52.12 316.91,138.74 397.19,260.57 80.29,121.84 120.43,273.25 120.43,454.95l0 190.15c0,78.17 11.97,167.61 35.21,268.32 23.95,100 64.09,171.83 121.84,214.09l0 41.55 -719.75 0c-54.93,-42.96 -90.84,-117.61 -107.75,-224.66 -16.19,-107.75 -24.64,-208.45 -24.64,-303.53l0 -181.69c0,-142.97 -38.03,-252.13 -113.39,-328.18 -75.35,-75.36 -186.63,-113.39 -332.4,-113.39l-373.26 0zm0 -536.64l352.83 0c140.15,0 247.9,-31.69 321.84,-95.78 74.65,-64.08 111.28,-155.63 111.28,-275.36 0,-122.54 -38.03,-221.13 -114.09,-295.78 -76.77,-75.36 -184.52,-112.68 -323.25,-112.68l-348.61 0 0 779.6z"/>
   <polygon id="3" class="fil4" points="40871.21,5433.66 40076.82,5433.66 40076.82,7901.35 39379.61,7901.35 39379.61,5433.66 38599.3,5433.66 38599.3,4897.02 40871.21,4897.02 "/>
   <path id="4" class="fil4" d="M43614.97 4897.02l0 1947.95c0,343.68 -114.09,613.41 -342.27,807.78 -228.88,194.37 -526.07,291.56 -893.69,292.26 -369.73,-0.7 -669.74,-97.89 -899.33,-292.26 -229.58,-194.37 -344.38,-464.1 -344.38,-807.78l0 -1947.95 699.32 0 0 1947.95c0,185.93 47.89,326.07 144.38,421.15 95.77,94.37 229.58,142.25 400.01,142.25 169.02,0 300.71,-47.18 395.08,-141.55 94.37,-94.37 141.56,-234.51 141.56,-421.85l0 -1947.95 699.32 0z"/>
   <path id="5" class="fil4" d="M45826.31 6871.74l0 1029.61 -697.2 0 0 -3004.33 1147.22 0c356.35,0 638.75,90.85 847.92,272.54 209.16,181.7 313.39,420.44 313.39,716.23 0,295.78 -104.23,533.82 -313.39,714.81 -209.17,180.99 -491.57,271.14 -847.92,271.14l-450.02 0zm0 -536.64l450.02 0c151.41,0 266.91,-41.55 346.49,-124.65 79.58,-83.11 119.72,-190.15 119.72,-320.44 0,-133.81 -39.44,-242.96 -119.02,-328.18 -78.87,-85.21 -194.37,-128.17 -347.19,-128.17l-450.02 0 0 901.44z"/>
   <polygon id="6" class="fil4" points="49579.26,6616.09 48520.77,6616.09 48520.77,7364.71 49789.83,7364.71 49789.83,7901.35 47823.57,7901.35 47823.57,4897.02 49791.94,4897.02 49791.94,5433.66 48520.77,5433.66 48520.77,6079.46 49579.26,6079.46 "/>
   <path id="7" class="fil4" d="M52554.71 7486.55c-104.23,126.76 -251.41,234.51 -441.56,323.95 -189.44,89.44 -433.82,133.81 -732.42,134.51 -372.55,-0.7 -675.38,-114.79 -907.78,-342.97 -232.4,-228.17 -348.6,-524.66 -348.6,-889.46l0 -626.79c0,-361.98 112.68,-657.77 339.45,-887.35 226.06,-229.59 517.62,-344.38 873.27,-344.38 383.81,0 673.96,85.21 869.74,257.05 196.49,171.13 290.86,404.95 283.82,702.14l-4.23 12.68 -653.54 0c0,-147.19 -39.44,-257.06 -117.61,-328.19 -78.88,-71.83 -197.19,-107.04 -354.94,-107.04 -162.69,0 -292.97,63.38 -392.27,191.55 -99.3,128.18 -148.6,294.38 -148.6,499.32l0 631.01c0,209.16 49.3,377.47 147.89,504.94 97.89,126.77 235.93,190.85 413.4,190.85 128.17,0 228.88,-10.56 302.12,-30.98 73.95,-20.43 131.7,-48.6 174.66,-82.4l0 -536.64 -532.42 0 0 -461.99 1229.62 0 0 1190.19z"/>
   <path id="8" class="fil4" d="M54545.63 7317.53l-892.99 0 -173.24 583.82 -734.54 0 979.62 -3004.33 373.95 0 0 2.11 2.12 -2.11 373.25 0 981.72 3004.33 -734.53 0 -175.36 -583.82zm-732.42 -536.64l571.85 0 -280.99 -932.43 -11.98 0 -278.88 932.43z"/>
   <polygon id="9" class="fil4" points="58006.32,6844.97 58018.29,6844.97 58381.68,4897.02 59087.34,4897.02 58397.88,7901.35 57742.22,7901.35 57236.57,6046.36 57223.9,6046.36 56722.47,7901.35 56066.81,7901.35 55375.24,4897.02 56083.01,4897.02 56446.4,6847.09 56458.38,6849.2 56968.25,4897.02 57494.33,4897.02 "/>
   <path id="10" class="fil4" d="M60838.8 7317.53l-892.99 0 -173.24 583.82 -734.54 0 979.62 -3004.33 373.95 0 0 2.11 2.12 -2.11 373.25 0 981.72 3004.33 -734.53 0 -175.36 -583.82zm-732.42 -536.64l571.85 0 -280.99 -932.43 -11.98 0 -278.88 932.43z"/>
   <polygon id="11" class="fil4" points="62702.24,7901.35 62006.44,7901.35 62006.44,4897.02 62702.24,4897.02 "/>
   <path class="fil5" d="M9724.86 13209.92l14600.59 0c902.79,0 1641.44,738.61 1641.44,1641.43l0 20161.54c0,902.82 -738.65,1641.43 -1641.44,1641.43l-14600.59 0c-902.82,0 -1641.43,-738.61 -1641.43,-1641.43l0 -20161.54c0,-902.82 738.61,-1641.43 1641.43,-1641.43zm600.25 600.31l13400.03 0c902.78,0 1641.42,738.63 1641.42,1641.44l0 18960.93c0,902.81 -738.64,1641.44 -1641.42,1641.44l-13400.03 0c-902.77,0 -1641.42,-738.63 -1641.42,-1641.44l0 -18960.93c0,-902.81 738.65,-1641.44 1641.42,-1641.44z"/>
   <polygon class="fil4" points="31873.19,17107.67 31564.15,17107.67 30943.55,16069 30937.05,16070.08 30937.05,17107.67 30628.37,17107.67 30628.37,15567.54 30937.05,15567.54 31558.01,16605.12 31564.15,16604.04 31564.15,15567.54 31873.19,15567.54 "/>
   <path id="1" class="fil4" d="M32807.88 17107.67c-11.19,-25.99 -20.94,-53.43 -28.88,-82.67 -8.3,-28.89 -14.08,-58.49 -17.69,-88.82 -31.77,55.96 -73.65,102.17 -125.64,138.64 -52.35,36.82 -114.44,54.87 -186.29,55.23 -119.86,-0.36 -212.28,-31.04 -276.9,-92.78 -64.99,-61.74 -97.48,-145.85 -97.48,-252.36 0,-111.91 43.32,-198.92 129.61,-260.66 86.28,-61.73 212.28,-92.42 377.99,-92.42l173.66 0 0 -90.98c0,-54.87 -14.45,-97.83 -43.33,-128.16 -28.88,-29.97 -72.2,-45.13 -129.24,-45.13 -49.83,0 -88.46,11.91 -115.89,36.46 -27.08,24.19 -40.44,57.41 -40.44,99.65l-297.48 0 -1.81 -6.14c-5.05,-96.75 37.19,-180.15 126.36,-250.19 89.17,-70.04 205.42,-105.42 349.47,-105.42 137.55,0 248.75,34.66 333.59,103.98 84.84,68.95 127.44,167.87 127.44,297.12l0 472.58c0,53.79 3.97,103.98 12.28,151.27 7.94,47.29 20.94,94.23 38.63,140.8l-307.96 0zm-282.32 -206.15c53.79,0 101.45,-13.35 144.05,-40.43 42.24,-26.72 71.12,-57.76 86.65,-92.78l0 -162.1 -173.66 0c-65.34,0 -115.16,16.24 -148.38,48.73 -33.57,32.5 -50.54,72.21 -50.54,119.5 0,38.99 12.63,69.68 37.54,92.43 25.28,23.1 59.93,34.65 104.34,34.65z"/>
   <path id="2" class="fil4" d="M33583.36 15963.22l12.64 151.27c36.82,-54.88 82.67,-97.48 138.27,-127.44 55.24,-29.97 119.14,-45.13 191.7,-45.13 73.29,0 136.11,16.25 188.46,48.74 51.99,32.49 91.7,81.59 118.41,146.94 35.38,-61.02 81.23,-109.03 137.55,-143.69 56.32,-34.66 122.75,-51.99 198.93,-51.99 112.64,0 201.81,40.07 266.8,120.22 65.34,80.15 97.83,202.18 97.83,366.44l0 679.09 -308.67 0 0 -680.17c0,-91.7 -14.08,-155.24 -42.24,-191.34 -28.16,-36.11 -70.4,-54.16 -126,-54.16 -43.68,0 -81.59,9.75 -113.72,29.24 -32.13,19.5 -57.77,46.22 -76.54,80.87 0,13.36 0.36,24.92 1.08,34.3 0.73,9.75 1.09,19.5 1.09,29.24l0 752.02 -307.96 0 0 -680.17c0,-89.54 -14.08,-152.71 -42.24,-189.9 -28.16,-36.82 -70.76,-55.6 -127.08,-55.6 -41.52,0 -77.98,7.94 -109.39,23.83 -31.41,15.88 -57.4,38.27 -77.62,67.15l0 834.69 -307.95 0 0 -1144.45 286.65 0z"/>
   <path id="3" class="fil4" d="M35845.54 17107.67c-11.19,-25.99 -20.94,-53.43 -28.88,-82.67 -8.3,-28.89 -14.08,-58.49 -17.69,-88.82 -31.77,55.96 -73.65,102.17 -125.64,138.64 -52.35,36.82 -114.44,54.87 -186.29,55.23 -119.86,-0.36 -212.28,-31.04 -276.9,-92.78 -64.99,-61.74 -97.48,-145.85 -97.48,-252.36 0,-111.91 43.32,-198.92 129.61,-260.66 86.28,-61.73 212.28,-92.42 377.99,-92.42l173.66 0 0 -90.98c0,-54.87 -14.45,-97.83 -43.33,-128.16 -28.88,-29.97 -72.2,-45.13 -129.24,-45.13 -49.83,0 -88.46,11.91 -115.89,36.46 -27.08,24.19 -40.44,57.41 -40.44,99.65l-297.48 0 -1.81 -6.14c-5.05,-96.75 37.19,-180.15 126.36,-250.19 89.17,-70.04 205.42,-105.42 349.47,-105.42 137.55,0 248.75,34.66 333.59,103.98 84.84,68.95 127.44,167.87 127.44,297.12l0 472.58c0,53.79 3.97,103.98 12.28,151.27 7.94,47.29 20.94,94.23 38.63,140.8l-307.96 0zm-282.32 -206.15c53.79,0 101.45,-13.35 144.05,-40.43 42.24,-26.72 71.12,-57.76 86.65,-92.78l0 -162.1 -173.66 0c-65.34,0 -115.16,16.24 -148.38,48.73 -33.57,32.5 -50.54,72.21 -50.54,119.5 0,38.99 12.63,69.68 37.54,92.43 25.28,23.1 59.93,34.65 104.34,34.65z"/>
   <polygon class="fil4" points="31873.19,19914.69 31564.15,19914.69 30943.55,18876.02 30937.05,18877.1 30937.05,19914.69 30628.37,19914.69 30628.37,18374.56 30937.05,18374.56 31558.01,19412.14 31564.15,19411.06 31564.15,18374.56 31873.19,18374.56 "/>
   <path id="1" class="fil4" d="M33376.86 18374.56l0 1007.98c0,173.65 -57.41,309.4 -172.21,407.24 -114.81,98.19 -263.91,146.93 -447.31,147.29 -182.68,-0.36 -331.06,-49.1 -444.78,-147.29 -114.09,-97.84 -170.77,-233.59 -170.77,-407.24l0 -1007.98 309.76 0 0 1007.98c0,103.25 27.44,181.59 82.31,236.11 55.24,54.15 129.61,81.23 223.48,81.23 94.95,0 170.4,-27.08 226.36,-81.23 55.6,-54.52 83.4,-132.86 83.4,-236.11l0 -1007.98 309.76 0z"/>
   <path id="2" class="fil4" d="M33953.42 19356.18l0 558.51 -308.68 0 0 -1540.13 588.83 0c177.27,0 316.26,45.13 418.07,135.38 101.45,90.26 152.35,209.04 152.35,356.69 0,147.3 -50.9,265.72 -152.35,355.25 -101.81,89.54 -240.8,134.3 -418.07,134.3l-280.15 0zm0 -237.91l280.15 0c86.29,0 151.27,-23.47 195.68,-70.4 44.41,-46.93 66.79,-106.5 66.79,-179.07 0,-74.37 -22.02,-135.38 -66.07,-183.76 -44.04,-48.38 -109.39,-72.21 -196.4,-72.21l-280.15 0 0 505.44z"/>
   <polygon id="3" class="fil4" points="36098.27,18612.83 35658.18,18612.83 35658.18,19914.69 35349.5,19914.69 35349.5,18612.83 34915.91,18612.83 34915.91,18374.56 36098.27,18374.56 "/>
   <polygon id="4" class="fil4" points="36689.63,19271.7 36576.27,19271.7 36576.27,19914.69 36267.59,19914.69 36267.59,18374.56 36576.27,18374.56 36576.27,19004.18 36662.92,19004.18 37084.95,18374.56 37466.92,18374.56 36933.68,19090.83 37508.07,19914.69 37114.56,19914.69 "/>
   <polygon class="fil4" points="31873.19,22721.71 31564.15,22721.71 30943.55,21683.04 30937.05,21684.12 30937.05,22721.71 30628.37,22721.71 30628.37,21181.58 30937.05,21181.58 31558.01,22219.16 31564.15,22218.08 31564.15,21181.58 31873.19,21181.58 "/>
   <polygon id="1" class="fil4" points="32486.57,22721.71 32177.53,22721.71 32177.53,21181.58 32486.57,21181.58 "/>
   <path id="2" class="fil4" d="M33101.04 22163.2l0 558.51 -308.68 0 0 -1540.13 588.83 0c177.27,0 316.26,45.13 418.07,135.38 101.45,90.26 152.35,209.04 152.35,356.69 0,147.3 -50.9,265.72 -152.35,355.25 -101.81,89.54 -240.8,134.3 -418.07,134.3l-280.15 0zm0 -237.91l280.15 0c86.29,0 151.27,-23.47 195.68,-70.4 44.41,-46.93 66.79,-106.5 66.79,-179.07 0,-74.37 -22.02,-135.38 -66.07,-183.76 -44.04,-48.38 -109.39,-72.21 -196.4,-72.21l-280.15 0 0 505.44z"/>
   <polygon class="fil4" points="31701.7,24226.86 31261.61,24226.86 31261.61,25528.72 30952.93,25528.72 30952.93,24226.86 30519.34,24226.86 30519.34,23988.59 31701.7,23988.59 "/>
   <polygon id="1" class="fil4" points="32961.32,24226.86 32521.23,24226.86 32521.23,25528.72 32212.55,25528.72 32212.55,24226.86 31778.96,24226.86 31778.96,23988.59 32961.32,23988.59 "/>
   <polygon id="2" class="fil4" points="33439.32,25291.89 34128.88,25291.89 34128.88,25528.72 33130.64,25528.72 33130.64,23988.59 33439.32,23988.59 "/>
   <path class="fil4" d="M31241.75 26795.61l307.6 0 0 1063.22c0,152.35 -46.57,273.29 -140.08,363.55 -93.51,90.25 -213.37,135.38 -359.94,135.74 -163.19,-0.36 -292.07,-40.43 -387.38,-120.58 -94.95,-80.51 -140.8,-197.12 -137.55,-350.19l2.16 -6.5 300.38 0c0,81.95 20.21,142.24 60.29,181.59 40.43,38.99 94.23,58.49 162.1,58.49 56.32,0 102.53,-23.47 138.27,-70.4 36.1,-46.57 54.15,-110.83 54.15,-191.7l0 -1063.22z"/>
   <path id="1" class="fil4" d="M32303.52 28358.12c-170.4,-0.36 -303.98,-52.71 -399.65,-157.4 -96.03,-104.7 -144.05,-239.36 -144.05,-404.35l0 -42.24c0,-171.49 46.57,-311.93 139.72,-420.96 93.14,-109.39 220.94,-163.9 384.13,-163.18 153.43,0 271.49,47.29 353.44,141.52 82.32,93.87 123.47,220.59 123.47,380.16l0 159.57 -682.34 0 -3.24 6.5c5.05,78.35 28.88,141.52 71.48,190.26 42.6,48.74 106.14,72.93 189.9,72.93 68.95,0 127.8,-6.86 176.18,-20.94 48.38,-14.08 98.2,-35.74 149.46,-64.62l83.76 190.26c-45.85,37.54 -107.95,68.95 -186.29,94.22 -78.34,25.28 -163.54,37.91 -255.97,38.27zm-19.85 -949.85c-62.1,0 -110.11,21.3 -143.33,63.9 -33.57,42.6 -53.79,99.28 -61.01,169.68l2.16 5.42 376.55 0 0 -23.47c0,-66.79 -13.72,-119.5 -41.15,-158.13 -27.8,-38.27 -72.21,-57.4 -133.22,-57.4z"/>
   <path id="2" class="fil4" d="M33222.7 27191.29l13.72 163.91c38.27,-58.49 85.2,-103.98 140.8,-136.47 55.59,-32.49 118.05,-48.74 187.37,-48.74 115.53,0 205.78,37.19 270.77,111.92 64.62,74.37 97.11,191.7 97.11,352.72l0 701.11 -309.76 0 0 -700.39c0,-81.59 -14.44,-139.72 -42.96,-173.65 -28.52,-34.3 -71.48,-51.63 -128.52,-51.63 -45.85,0 -86.29,8.67 -120.95,26 -35.02,17.32 -63.9,41.15 -86.28,71.48l0 828.19 -308.68 0 0 -1144.45 287.38 0z"/>
   <path id="3" class="fil4" d="M34488.09 28335.74l-309.04 0 0 -1144.45 309.04 0 0 1144.45zm0 -1418.47l-309.04 0 0 -231.41 309.04 0 0 231.41z"/>
   <path id="4" class="fil4" d="M35360.68 28018.4c0,-33.94 -16.24,-62.82 -49.1,-87.37 -32.85,-24.19 -93.5,-45.49 -182.68,-63.9 -133.94,-26.72 -235.38,-67.15 -305.06,-121.67 -69.32,-54.15 -103.98,-127.8 -103.98,-220.94 0,-98.2 41.52,-181.6 124.56,-250.55 83.39,-69.32 193.87,-103.98 332.14,-103.98 144.77,0 260.3,34.66 347.67,103.98 87,68.95 128.88,154.88 125.27,257.77l-2.16 6.5 -298.21 0c0,-45.85 -14.8,-83.04 -44.41,-112.28 -29.6,-28.88 -72.2,-43.33 -128.16,-43.33 -49.1,0 -88.45,12.64 -117.33,37.19 -28.88,24.55 -43.33,54.88 -43.33,90.98 0,35.02 14.81,63.9 44.77,86.28 29.97,22.03 90.98,41.88 182.68,59.57 140.08,28.16 244.77,69.68 313.37,124.19 68.96,54.88 103.25,129.97 103.25,226.01 0,102.89 -44.04,187.01 -132.13,252.71 -88.09,65.71 -204.34,98.2 -349.11,98.56 -152.36,-0.36 -272.58,-38.63 -361.03,-115.89 -88.45,-77.25 -130.69,-165.34 -126.36,-263.9l1.81 -6.5 282.68 0c1.81,61.37 22.02,105.78 60.29,133.22 37.91,27.43 87.73,41.51 149.1,41.51 57.05,0 100.37,-11.55 130.33,-34.66 29.97,-22.74 45.13,-54.15 45.13,-93.5z"/>
   <polygon id="5" class="fil4" points="36843.77,27692.75 36730.41,27692.75 36730.41,28335.74 36421.73,28335.74 36421.73,26795.61 36730.41,26795.61 36730.41,27425.23 36817.06,27425.23 37239.09,26795.61 37621.06,26795.61 37087.82,27511.88 37662.21,28335.74 37268.7,28335.74 "/>
   <path id="6" class="fil4" d="M38247.07 28358.12c-170.4,-0.36 -303.98,-52.71 -399.65,-157.4 -96.03,-104.7 -144.05,-239.36 -144.05,-404.35l0 -42.24c0,-171.49 46.57,-311.93 139.72,-420.96 93.14,-109.39 220.94,-163.9 384.13,-163.18 153.43,0 271.49,47.29 353.44,141.52 82.32,93.87 123.47,220.59 123.47,380.16l0 159.57 -682.34 0 -3.24 6.5c5.05,78.35 28.88,141.52 71.48,190.26 42.6,48.74 106.14,72.93 189.9,72.93 68.95,0 127.8,-6.86 176.18,-20.94 48.38,-14.08 98.2,-35.74 149.46,-64.62l83.76 190.26c-45.85,37.54 -107.95,68.95 -186.29,94.22 -78.34,25.28 -163.54,37.91 -255.97,38.27zm-19.85 -949.85c-62.1,0 -110.11,21.3 -143.33,63.9 -33.57,42.6 -53.79,99.28 -61.01,169.68l2.16 5.42 376.55 0 0 -23.47c0,-66.79 -13.72,-119.5 -41.15,-158.13 -27.8,-38.27 -72.21,-57.4 -133.22,-57.4z"/>
   <polygon id="7" class="fil4" points="39208.85,28335.74 38899.81,28335.74 38899.81,26685.86 39208.85,26685.86 "/>
   <path id="8" class="fil4" d="M40137.4 28335.74c-11.19,-25.99 -20.94,-53.43 -28.88,-82.67 -8.3,-28.89 -14.08,-58.49 -17.69,-88.82 -31.77,55.96 -73.65,102.17 -125.64,138.64 -52.35,36.82 -114.44,54.87 -186.29,55.23 -119.86,-0.36 -212.28,-31.04 -276.9,-92.78 -64.99,-61.74 -97.48,-145.85 -97.48,-252.36 0,-111.91 43.32,-198.92 129.61,-260.66 86.28,-61.73 212.28,-92.42 377.99,-92.42l173.66 0 0 -90.98c0,-54.87 -14.45,-97.83 -43.33,-128.16 -28.88,-29.97 -72.2,-45.13 -129.24,-45.13 -49.83,0 -88.46,11.91 -115.89,36.46 -27.08,24.19 -40.44,57.41 -40.44,99.65l-297.48 0 -1.81 -6.14c-5.05,-96.75 37.19,-180.15 126.36,-250.19 89.17,-70.04 205.42,-105.42 349.47,-105.42 137.55,0 248.75,34.66 333.59,103.98 84.84,68.95 127.44,167.87 127.44,297.12l0 472.58c0,53.79 3.97,103.98 12.28,151.27 7.94,47.29 20.94,94.23 38.63,140.8l-307.96 0zm-282.32 -206.15c53.79,0 101.45,-13.35 144.05,-40.43 42.24,-26.72 71.12,-57.76 86.65,-92.78l0 -162.1 -173.66 0c-65.34,0 -115.16,16.24 -148.38,48.73 -33.57,32.5 -50.54,72.21 -50.54,119.5 0,38.99 12.63,69.68 37.54,92.43 25.28,23.1 59.93,34.65 104.34,34.65z"/>
   <path id="9" class="fil4" d="M40912.88 27191.29l12.64 151.27c36.82,-54.88 82.67,-97.48 138.27,-127.44 55.24,-29.97 119.14,-45.13 191.7,-45.13 73.29,0 136.11,16.25 188.46,48.74 51.99,32.49 91.7,81.59 118.41,146.94 35.38,-61.02 81.23,-109.03 137.55,-143.69 56.32,-34.66 122.75,-51.99 198.93,-51.99 112.64,0 201.81,40.07 266.8,120.22 65.34,80.15 97.83,202.18 97.83,366.44l0 679.09 -308.67 0 0 -680.17c0,-91.7 -14.08,-155.24 -42.24,-191.34 -28.16,-36.11 -70.4,-54.16 -126,-54.16 -43.68,0 -81.59,9.75 -113.72,29.24 -32.13,19.5 -57.77,46.22 -76.54,80.87 0,13.36 0.36,24.92 1.08,34.3 0.73,9.75 1.09,19.5 1.09,29.24l0 752.02 -307.96 0 0 -680.17c0,-89.54 -14.08,-152.71 -42.24,-189.9 -28.16,-36.82 -70.76,-55.6 -127.08,-55.6 -41.52,0 -77.98,7.94 -109.39,23.83 -31.41,15.88 -57.4,38.27 -77.62,67.15l0 834.69 -307.95 0 0 -1144.45 286.65 0z"/>
   <path id="10" class="fil4" d="M42825.23 28335.74l-309.04 0 0 -1144.45 309.04 0 0 1144.45zm0 -1418.47l-309.04 0 0 -231.41 309.04 0 0 231.41z"/>
   <path id="11" class="fil4" d="M43361.35 27191.29l13.72 163.91c38.27,-58.49 85.2,-103.98 140.8,-136.47 55.59,-32.49 118.05,-48.74 187.37,-48.74 115.53,0 205.78,37.19 270.77,111.92 64.62,74.37 97.11,191.7 97.11,352.72l0 701.11 -309.76 0 0 -700.39c0,-81.59 -14.44,-139.72 -42.96,-173.65 -28.52,-34.3 -71.48,-51.63 -128.52,-51.63 -45.85,0 -86.29,8.67 -120.95,26 -35.02,17.32 -63.9,41.15 -86.28,71.48l0 828.19 -308.68 0 0 -1144.45 287.38 0z"/>
   <path class="fil4" d="M31430.93 30810.61l-499.3 0 -103.61 332.14 -322.4 0 519.16 -1540.13 316.26 0 517.34 1540.13 -322.75 0 -104.7 -332.14zm-423.12 -242.25l348.03 0 -170.04 -542.62 -6.5 0 -171.49 542.62z"/>
   <path id="1" class="fil4" d="M31937.45 30579.91c0,-180.51 39.35,-326 117.33,-436.84 78.34,-110.47 188.46,-166.07 329.98,-166.07 64.26,0 120.58,14.44 169.32,43.68 48.74,28.89 90.25,70.04 124.91,123.47l24.19 -145.85 265.72 0 0 1139.03c0,148.75 -48.74,263.91 -146.22,345.51 -97.12,81.23 -232.86,122.02 -407.24,122.02 -57.76,0 -119.13,-7.94 -183.76,-23.83 -64.98,-15.88 -124.91,-37.54 -179.79,-64.98l51.63 -230.33c47.29,22.38 96.03,39.35 146.57,51.26 50.55,11.55 104.7,17.33 163.55,17.33 84.48,0 146.58,-17.69 186.65,-53.07 39.71,-35.02 59.57,-90.26 59.57,-164.99l0 -103.61c-33.94,42.96 -73.65,75.81 -119.5,98.56 -45.85,22.38 -98.2,33.57 -157.41,33.93 -140.44,-0.36 -249.83,-51.62 -328.17,-154.52 -77.98,-102.89 -117.33,-238.99 -117.33,-408.31l0 -22.39zm309.03 22.39c0,100 16.61,179.06 50.19,236.47 33.57,57.4 88.09,85.92 164.26,85.92 47.3,0 87.37,-8.3 120.22,-25.63 32.86,-17.33 58.85,-42.6 78.71,-75.82l0 -496.05c-19.86,-35.01 -45.85,-62.45 -78.71,-81.23 -32.85,-19.13 -72.2,-28.88 -118.05,-28.88 -75.45,0 -130.33,33.58 -164.99,100.73 -34.66,66.79 -51.63,154.52 -51.63,262.1l0 22.39z"/>
   <path id="2" class="fil4" d="M33880.48 31142.75c-11.19,-25.99 -20.94,-53.43 -28.88,-82.67 -8.3,-28.89 -14.08,-58.49 -17.69,-88.82 -31.77,55.96 -73.65,102.17 -125.64,138.64 -52.35,36.82 -114.44,54.87 -186.29,55.23 -119.86,-0.36 -212.28,-31.04 -276.9,-92.78 -64.99,-61.74 -97.48,-145.85 -97.48,-252.36 0,-111.91 43.32,-198.92 129.61,-260.66 86.28,-61.73 212.28,-92.42 377.99,-92.42l173.66 0 0 -90.98c0,-54.87 -14.45,-97.83 -43.33,-128.16 -28.88,-29.97 -72.2,-45.13 -129.24,-45.13 -49.83,0 -88.46,11.91 -115.89,36.46 -27.08,24.19 -40.44,57.41 -40.44,99.65l-297.48 0 -1.81 -6.14c-5.05,-96.75 37.19,-180.15 126.36,-250.19 89.17,-70.04 205.42,-105.42 349.47,-105.42 137.55,0 248.75,34.66 333.59,103.98 84.84,68.95 127.44,167.87 127.44,297.12l0 472.58c0,53.79 3.97,103.98 12.28,151.27 7.94,47.29 20.94,94.23 38.63,140.8l-307.96 0zm-282.32 -206.15c53.79,0 101.45,-13.35 144.05,-40.43 42.24,-26.72 71.12,-57.76 86.65,-92.78l0 -162.1 -173.66 0c-65.34,0 -115.16,16.24 -148.38,48.73 -33.57,32.5 -50.54,72.21 -50.54,119.5 0,38.99 12.63,69.68 37.54,92.43 25.28,23.1 59.93,34.65 104.34,34.65z"/>
   <path id="3" class="fil4" d="M34655.96 29998.3l12.64 151.27c36.82,-54.88 82.67,-97.48 138.27,-127.44 55.24,-29.97 119.14,-45.13 191.7,-45.13 73.29,0 136.11,16.25 188.46,48.74 51.99,32.49 91.7,81.59 118.41,146.94 35.38,-61.02 81.23,-109.03 137.55,-143.69 56.32,-34.66 122.75,-51.99 198.93,-51.99 112.64,0 201.81,40.07 266.8,120.22 65.34,80.15 97.83,202.18 97.83,366.44l0 679.09 -308.67 0 0 -680.17c0,-91.7 -14.08,-155.24 -42.24,-191.34 -28.16,-36.11 -70.4,-54.16 -126,-54.16 -43.68,0 -81.59,9.75 -113.72,29.24 -32.13,19.5 -57.77,46.22 -76.54,80.87 0,13.36 0.36,24.92 1.08,34.3 0.73,9.75 1.09,19.5 1.09,29.24l0 752.02 -307.96 0 0 -680.17c0,-89.54 -14.08,-152.71 -42.24,-189.9 -28.16,-36.82 -70.76,-55.6 -127.08,-55.6 -41.52,0 -77.98,7.94 -109.39,23.83 -31.41,15.88 -57.4,38.27 -77.62,67.15l0 834.69 -307.95 0 0 -1144.45 286.65 0z"/>
   <path id="4" class="fil4" d="M36918.14 31142.75c-11.19,-25.99 -20.94,-53.43 -28.88,-82.67 -8.3,-28.89 -14.08,-58.49 -17.69,-88.82 -31.77,55.96 -73.65,102.17 -125.64,138.64 -52.35,36.82 -114.44,54.87 -186.29,55.23 -119.86,-0.36 -212.28,-31.04 -276.9,-92.78 -64.99,-61.74 -97.48,-145.85 -97.48,-252.36 0,-111.91 43.32,-198.92 129.61,-260.66 86.28,-61.73 212.28,-92.42 377.99,-92.42l173.66 0 0 -90.98c0,-54.87 -14.45,-97.83 -43.33,-128.16 -28.88,-29.97 -72.2,-45.13 -129.24,-45.13 -49.83,0 -88.46,11.91 -115.89,36.46 -27.08,24.19 -40.44,57.41 -40.44,99.65l-297.48 0 -1.81 -6.14c-5.05,-96.75 37.19,-180.15 126.36,-250.19 89.17,-70.04 205.42,-105.42 349.47,-105.42 137.55,0 248.75,34.66 333.59,103.98 84.84,68.95 127.44,167.87 127.44,297.12l0 472.58c0,53.79 3.97,103.98 12.28,151.27 7.94,47.29 20.94,94.23 38.63,140.8l-307.96 0zm-282.32 -206.15c53.79,0 101.45,-13.35 144.05,-40.43 42.24,-26.72 71.12,-57.76 86.65,-92.78l0 -162.1 -173.66 0c-65.34,0 -115.16,16.24 -148.38,48.73 -33.57,32.5 -50.54,72.21 -50.54,119.5 0,38.99 12.63,69.68 37.54,92.43 25.28,23.1 59.93,34.65 104.34,34.65z"/>
   <path class="fil4" d="M31430.93 33617.63l-499.3 0 -103.61 332.14 -322.4 0 519.16 -1540.13 316.26 0 517.34 1540.13 -322.75 0 -104.7 -332.14zm-423.12 -242.25l348.03 0 -170.04 -542.62 -6.5 0 -171.49 542.62z"/>
   <polygon id="1" class="fil4" points="32307.86,33949.77 31998.82,33949.77 31998.82,32299.89 32307.86,32299.89 "/>
   <path id="2" class="fil4" d="M33236.41 33949.77c-11.19,-25.99 -20.94,-53.43 -28.88,-82.67 -8.3,-28.89 -14.08,-58.49 -17.69,-88.82 -31.77,55.96 -73.65,102.17 -125.64,138.64 -52.35,36.82 -114.44,54.87 -186.29,55.23 -119.86,-0.36 -212.28,-31.04 -276.9,-92.78 -64.99,-61.74 -97.48,-145.85 -97.48,-252.36 0,-111.91 43.32,-198.92 129.61,-260.66 86.28,-61.73 212.28,-92.42 377.99,-92.42l173.66 0 0 -90.98c0,-54.87 -14.45,-97.83 -43.33,-128.16 -28.88,-29.97 -72.2,-45.13 -129.24,-45.13 -49.83,0 -88.46,11.91 -115.89,36.46 -27.08,24.19 -40.44,57.41 -40.44,99.65l-297.48 0 -1.81 -6.14c-5.05,-96.75 37.19,-180.15 126.36,-250.19 89.17,-70.04 205.42,-105.42 349.47,-105.42 137.55,0 248.75,34.66 333.59,103.98 84.84,68.95 127.44,167.87 127.44,297.12l0 472.58c0,53.79 3.97,103.98 12.28,151.27 7.94,47.29 20.94,94.23 38.63,140.8l-307.96 0zm-282.32 -206.15c53.79,0 101.45,-13.35 144.05,-40.43 42.24,-26.72 71.12,-57.76 86.65,-92.78l0 -162.1 -173.66 0c-65.34,0 -115.16,16.24 -148.38,48.73 -33.57,32.5 -50.54,72.21 -50.54,119.5 0,38.99 12.63,69.68 37.54,92.43 25.28,23.1 59.93,34.65 104.34,34.65z"/>
   <path id="3" class="fil4" d="M34011.89 32805.32l12.64 151.27c36.82,-54.88 82.67,-97.48 138.27,-127.44 55.24,-29.97 119.14,-45.13 191.7,-45.13 73.29,0 136.11,16.25 188.46,48.74 51.99,32.49 91.7,81.59 118.41,146.94 35.38,-61.02 81.23,-109.03 137.55,-143.69 56.32,-34.66 122.75,-51.99 198.93,-51.99 112.64,0 201.81,40.07 266.8,120.22 65.34,80.15 97.83,202.18 97.83,366.44l0 679.09 -308.67 0 0 -680.17c0,-91.7 -14.08,-155.24 -42.24,-191.34 -28.16,-36.11 -70.4,-54.16 -126,-54.16 -43.68,0 -81.59,9.75 -113.72,29.24 -32.13,19.5 -57.77,46.22 -76.54,80.87 0,13.36 0.36,24.92 1.08,34.3 0.73,9.75 1.09,19.5 1.09,29.24l0 752.02 -307.96 0 0 -680.17c0,-89.54 -14.08,-152.71 -42.24,-189.9 -28.16,-36.82 -70.76,-55.6 -127.08,-55.6 -41.52,0 -77.98,7.94 -109.39,23.83 -31.41,15.88 -57.4,38.27 -77.62,67.15l0 834.69 -307.95 0 0 -1144.45 286.65 0z"/>
   <path id="4" class="fil4" d="M36274.07 33949.77c-11.19,-25.99 -20.94,-53.43 -28.88,-82.67 -8.3,-28.89 -14.08,-58.49 -17.69,-88.82 -31.77,55.96 -73.65,102.17 -125.64,138.64 -52.35,36.82 -114.44,54.87 -186.29,55.23 -119.86,-0.36 -212.28,-31.04 -276.9,-92.78 -64.99,-61.74 -97.48,-145.85 -97.48,-252.36 0,-111.91 43.32,-198.92 129.61,-260.66 86.28,-61.73 212.28,-92.42 377.99,-92.42l173.66 0 0 -90.98c0,-54.87 -14.45,-97.83 -43.33,-128.16 -28.88,-29.97 -72.2,-45.13 -129.24,-45.13 -49.83,0 -88.46,11.91 -115.89,36.46 -27.08,24.19 -40.44,57.41 -40.44,99.65l-297.48 0 -1.81 -6.14c-5.05,-96.75 37.19,-180.15 126.36,-250.19 89.17,-70.04 205.42,-105.42 349.47,-105.42 137.55,0 248.75,34.66 333.59,103.98 84.84,68.95 127.44,167.87 127.44,297.12l0 472.58c0,53.79 3.97,103.98 12.28,151.27 7.94,47.29 20.94,94.23 38.63,140.8l-307.96 0zm-282.32 -206.15c53.79,0 101.45,-13.35 144.05,-40.43 42.24,-26.72 71.12,-57.76 86.65,-92.78l0 -162.1 -173.66 0c-65.34,0 -115.16,16.24 -148.38,48.73 -33.57,32.5 -50.54,72.21 -50.54,119.5 0,38.99 12.63,69.68 37.54,92.43 25.28,23.1 59.93,34.65 104.34,34.65z"/>
   <path id="5" class="fil4" d="M37133.31 32525.17l0 280.15 193.51 0 0 216.98 -193.51 0 0 582.69c0,44.41 9.02,76.18 27.8,95.31 18.77,18.78 43.32,28.52 73.65,28.52 16.24,0 30.32,-1.08 42.24,-2.89 11.91,-1.8 25.63,-4.69 41.15,-9.02l25.64 223.47c-31.05,10.47 -61.38,18.42 -90.62,23.83 -29.24,5.06 -61.02,7.58 -95.67,7.94 -106.51,-0.36 -188.46,-29.6 -245.86,-88.09 -57.4,-58.48 -86.29,-151.27 -86.29,-277.99l0 -583.77 -167.15 0 0 -216.98 167.15 0 0 -280.15 307.96 0z"/>
   <path class="fil4" d="M45894.14 17107.67l-308.68 0 0 -270.77 308.68 0 0 270.77zm0 -927.11l-308.68 0 0 -270.77 308.68 0 0 270.77z"/>
   <path class="fil4" d="M45894.14 19914.69l-308.68 0 0 -270.77 308.68 0 0 270.77zm0 -927.11l-308.68 0 0 -270.77 308.68 0 0 270.77z"/>
   <path class="fil4" d="M45894.14 22721.71l-308.68 0 0 -270.77 308.68 0 0 270.77zm0 -927.11l-308.68 0 0 -270.77 308.68 0 0 270.77z"/>
   <path class="fil4" d="M45894.14 25528.72l-308.68 0 0 -270.77 308.68 0 0 270.77zm0 -927.11l-308.68 0 0 -270.77 308.68 0 0 270.77z"/>
   <path class="fil4" d="M45894.14 28335.74l-308.68 0 0 -270.77 308.68 0 0 270.77zm0 -927.11l-308.68 0 0 -270.77 308.68 0 0 270.77z"/>
   <path class="fil4" d="M45894.14 31142.75l-308.68 0 0 -270.77 308.68 0 0 270.77zm0 -927.11l-308.68 0 0 -270.77 308.68 0 0 270.77z"/>
   <path class="fil4" d="M45894.14 33949.77l-308.68 0 0 -270.77 308.68 0 0 270.77zm0 -927.11l-308.68 0 0 -270.77 308.68 0 0 270.77z"/>
   <path class="fil6" d="M45479.98 33327.39l0 -148.54 148.54 0 0 148.54 -148.54 0zm0 622.37l0 -148.54 148.54 0 0 148.54 -148.54 0z"/>
   <polygon class="fil6" points="12398.04,26190.62 12398.04,23673.62 14095.96,23673.62 14095.96,23968.91 12732,23968.91 12732,24752.84 13913.16,24752.84 13913.16,25048.13 12732,25048.13 12732,26190.62 "/>
   <path id="1" class="fil6" d="M14425.82 24965.52c0,-417.16 112.49,-744.09 336.89,-980.2 224.39,-236.12 513.82,-353.88 868.88,-353.88 232.6,0 441.76,55.66 628.66,166.39 186.31,110.74 328.69,265.41 426.53,464.03 97.84,198.03 147.06,423.01 147.06,674.36 0,254.87 -51.56,483.36 -154.68,684.33 -103.11,201.54 -249,353.88 -437.66,456.99 -189.24,103.71 -393.13,155.26 -611.67,155.26 -237.29,0 -448.8,-57.41 -635.7,-171.66 -186.31,-114.25 -328.1,-270.1 -424.18,-468.13 -96.09,-197.45 -144.13,-406.61 -144.13,-627.49zm344.5 5.86c0,302.9 81.44,541.36 244.32,715.37 162.88,174.01 367.36,261.31 613.43,261.31 250.76,0 456.41,-87.88 618.7,-263.65 161.71,-175.77 242.56,-425.36 242.56,-748.77 0,-204.48 -34.56,-383.18 -103.7,-535.51 -69.14,-152.33 -170.49,-270.68 -303.49,-354.47 -133.59,-83.78 -282.99,-125.96 -448.8,-125.96 -235.53,0 -438.24,80.85 -608.15,242.56 -169.91,161.7 -254.87,431.21 -254.87,809.12z"/>
   <polygon id="2" class="fil6" points="17901.92,26190.62 17901.92,23968.91 17072.29,23968.91 17072.29,23673.62 19065.5,23673.62 19065.5,23968.91 18235.88,23968.91 18235.88,26190.62 "/>
   <path id="3" class="fil6" d="M19244.2 24965.52c0,-417.16 112.49,-744.09 336.89,-980.2 224.39,-236.12 513.82,-353.88 868.88,-353.88 232.6,0 441.76,55.66 628.66,166.39 186.31,110.74 328.69,265.41 426.53,464.03 97.84,198.03 147.06,423.01 147.06,674.36 0,254.87 -51.56,483.36 -154.68,684.33 -103.11,201.54 -249,353.88 -437.66,456.99 -189.24,103.71 -393.13,155.26 -611.67,155.26 -237.29,0 -448.8,-57.41 -635.7,-171.66 -186.31,-114.25 -328.1,-270.1 -424.18,-468.13 -96.09,-197.45 -144.13,-406.61 -144.13,-627.49zm344.5 5.86c0,302.9 81.44,541.36 244.32,715.37 162.88,174.01 367.36,261.31 613.43,261.31 250.76,0 456.41,-87.88 618.7,-263.65 161.71,-175.77 242.56,-425.36 242.56,-748.77 0,-204.48 -34.56,-383.18 -103.7,-535.51 -69.14,-152.33 -170.49,-270.68 -303.49,-354.47 -133.59,-83.78 -282.99,-125.96 -448.8,-125.96 -235.53,0 -438.24,80.85 -608.15,242.56 -169.91,161.7 -254.87,431.21 -254.87,809.12z"/>
  </g>
 </g>
</svg>
