<?xml version="1.0" encoding="UTF-8"?>
<!DOCTYPE svg PUBLIC "-//W3C//DTD SVG 1.1//EN" "http://www.w3.org/Graphics/SVG/1.1/DTD/svg11.dtd">
<!-- Creator: CorelDRAW 2020 (64-Bit) -->
<svg xmlns="http://www.w3.org/2000/svg" xml:space="preserve" width="937.112mm" height="535.514mm" version="1.1" style="shape-rendering:geometricPrecision; text-rendering:geometricPrecision; image-rendering:optimizeQuality; fill-rule:evenodd; clip-rule:evenodd"
viewBox="0 0 93711.2 53551.4"
 xmlns:xlink="http://www.w3.org/1999/xlink"
 xmlns:xodm="http://www.corel.com/coreldraw/odm/2003">
 <defs>
  <style type="text/css">
   <![CDATA[
    .fil0 {fill:white}
    .fil6 {fill:black;fill-rule:nonzero}
    .fil5 {fill:white;fill-rule:nonzero}
    .fil2 {fill:url(#id0)}
    .fil1 {fill:url(#id1)}
    .fil3 {fill:url(#id2);fill-opacity:0.501961}
    .fil4 {fill:url(#id3);fill-opacity:0.501961}
   ]]>
  </style>
  <linearGradient id="id0" gradientUnits="userSpaceOnUse" x1="46852.45" y1="3.79" x2="45788.7" y2="55076.48">
   <stop offset="0" style="stop-opacity:1; stop-color:#074097"/>
   <stop offset="0.988235" style="stop-opacity:1; stop-color:#2074BF"/>
   <stop offset="1" style="stop-opacity:1; stop-color:#3AA8E8"/>
  </linearGradient>
  <linearGradient id="id1" gradientUnits="userSpaceOnUse" x1="53436.2" y1="3624.37" x2="51950.82" y2="53555.77">
   <stop offset="0" style="stop-opacity:1; stop-color:#1B6ECA"/>
   <stop offset="0.380392" style="stop-opacity:1; stop-color:#4AC0FE"/>
   <stop offset="1" style="stop-opacity:1; stop-color:#00A1E8"/>
  </linearGradient>
  <linearGradient id="id2" gradientUnits="userSpaceOnUse" x1="58488.44" y1="59829.66" x2="53215.51" y2="21358.37">
   <stop offset="0" style="stop-opacity:1; stop-color:#0264D2"/>
   <stop offset="0.741176" style="stop-opacity:1; stop-color:#0365D1"/>
   <stop offset="1" style="stop-opacity:1; stop-color:#0466D0"/>
  </linearGradient>
  <linearGradient id="id3" gradientUnits="userSpaceOnUse" x1="29449.21" y1="3.79" x2="28260.92" y2="52031.35">
   <stop offset="0" style="stop-opacity:1; stop-color:#0565D0"/>
   <stop offset="1" style="stop-opacity:1; stop-color:#038BDE"/>
  </linearGradient>
 </defs>
 <g id="Layer_x0020_1">
  <metadata id="CorelCorpID_0Corel-Layer"/>
  <g id="_2212930878640">
   <rect class="fil0" x="-7.4" y="3.79" width="93719.69" height="53551.96"/>
   <path class="fil1" d="M5330.66 53555.76l83043.04 0c2948.57,0 5338.59,-2389.48 5338.59,-5336.46l0 -42876.91 0 0c0,-2948.58 -2390.02,-5338.6 -5338.59,-5338.6l-83043.04 0c-2948.58,0 -5338.06,2390.02 -5338.06,5338.6l0 42876.91c0,2946.98 2389.48,5336.46 5338.06,5336.46z"/>
   <polygon class="fil2" points="-7.4,53555.76 93712.29,53555.76 93712.29,48219.38 93712.29,3.79 88373.63,3.79 -7.4,3.79 -7.4,5342.39 -7.4,48219.38 "/>
   <path class="fil3" d="M93712.29 53555.76l0 -34094.4c-31652.96,2136.19 -58958.05,13500.46 -81916.31,34094.4l76577.72 0 5338.59 0z"/>
   <path class="fil4" d="M-7.4 3.79c22475.46,0 44950.92,0 67426.38,0 533.37,29571.45 -13120.71,44286.9 -28252.95,53551.97l-39173.43 0 0 -53551.97z"/>
   <path class="fil5" d="M37139.12 50589.45l0 499.95 -338.54 0 0 -1458.82 557.06 0c173.03,0 310.16,44.11 411.72,132.34 101.57,88.22 152.18,204.15 152.18,347.78 0,143.62 -50.61,259.21 -152.18,347.09 -101.56,87.89 -238.69,131.66 -411.72,131.66l-218.52 0zm0 -260.58l218.52 0c73.52,0 129.6,-20.18 168.25,-60.53 38.64,-40.35 58.13,-92.33 58.13,-155.59 0,-64.98 -19.15,-117.98 -57.79,-159.36 -38.3,-41.38 -94.38,-62.24 -168.59,-62.24l-218.52 0 0 437.72z"/>
   <path id="1" class="fil5" d="M38687.88 50293.99l-110.11 -1.03c-38.64,0 -70.44,7.18 -95.06,21.55 -24.97,14.36 -43.09,34.54 -55.06,60.53l0 714.36 -338.89 0 0 -1084.03 318.71 0 11.97 159.36c22.57,-56.77 52.66,-100.88 90.28,-132.34 37.28,-31.46 81.05,-47.19 131.32,-47.19 15.04,0 29.06,1.02 41.03,3.07 11.97,2.05 24.62,5.13 37.96,9.24l-32.15 296.48z"/>
   <path id="2" class="fil5" d="M38746.7 50537.47c0,-163.12 46.17,-295.8 138.5,-398.39 91.99,-102.59 220.57,-153.88 385.74,-153.88 165.51,0 294.43,51.29 386.76,153.88 91.99,102.59 138.15,235.27 138.15,398.39l0 20.86c0,163.8 -46.16,296.48 -138.15,398.73 -92.33,102.25 -220.57,153.2 -384.71,153.54 -166.54,-0.34 -295.8,-51.29 -387.79,-153.54 -92.33,-102.25 -138.5,-234.93 -138.5,-398.73l0 -20.86zm338.89 20.86c0,90.96 14.02,162.09 42.4,214.07 28.39,51.64 76.6,77.62 145,77.62 66,0 113.53,-25.98 142.25,-78.31 28.39,-51.97 42.75,-123.1 42.75,-213.38l0 -20.86c0,-88.23 -14.36,-159.02 -42.75,-212.02 -28.72,-53 -76.94,-79.68 -144.3,-79.68 -67.03,0 -114.56,26.68 -142.95,80.36 -28.38,53.35 -42.4,123.8 -42.4,211.34l0 20.86z"/>
   <polygon id="3" class="fil5" points="40335.81,50642.45 40355.65,50757.69 40361.8,50758.72 40383.69,50642.45 40526.97,50005.37 40882.62,50005.37 40530.05,51089.4 40186.38,51089.4 39833.81,50005.37 40190.48,50005.37 "/>
   <path id="4" class="fil5" d="M41339.48 51089.4l-339.57 0 0 -1084.03 339.57 0 0 1084.03zm0 -1335.37l-339.57 0 0 -227.41 339.57 0 0 227.41z"/>
   <path id="5" class="fil5" d="M41501.91 50549.44c0,-168.93 36.94,-305.38 110.8,-408.65 73.86,-103.62 177.82,-155.59 312.21,-155.59 49.93,0 95.41,11.62 135.76,34.88 40.36,22.91 76.6,55.74 108.75,98.48l0 -591.94 338.54 0 0 1562.78 -296.48 0 -23.25 -132.34c-32.49,49.58 -70.79,87.54 -114.56,113.87 -43.77,26.34 -94.04,39.33 -150.81,39.67 -133.71,-0.34 -236.98,-49.58 -310.5,-148.41 -73.52,-98.83 -110.46,-229.46 -110.46,-391.89l0 -20.86zm338.89 20.86c0,88.22 12.65,156.96 38.3,205.86 25.99,49.24 69.08,73.86 129.95,73.86 35.22,0 66.68,-6.49 93.7,-19.49 27.01,-12.99 49.24,-32.48 66.68,-57.79l0 -437.71c-17.44,-28.73 -39.67,-50.96 -66.34,-66 -26.68,-15.39 -57.45,-23.26 -91.99,-23.26 -60.19,0 -103.62,27.7 -130.29,83.1 -26.67,55.4 -40.01,128.92 -40.01,220.57l0 20.86z"/>
   <path id="6" class="fil5" d="M43181.31 51110.6c-164.49,-0.34 -293.07,-49.93 -386.42,-149.44 -93.02,-99.51 -139.87,-225.35 -139.87,-377.53l0 -38.3c0,-165.51 44.12,-300.58 132,-404.54 87.89,-104.3 214.76,-156.28 380.95,-155.59 146.36,0 259.89,43.77 340.26,131.31 80.36,87.54 120.71,207.57 120.71,359.75l0 177.48 -621.01 0 -2.05 5.81c5.13,56.77 26.33,102.59 62.92,137.81 36.93,35.22 89.6,52.66 158.33,52.66 64.97,0 118.66,-5.47 161.75,-16.07 43.09,-10.6 92.33,-27.7 148.07,-51.29l81.05 206.54c-46.85,34.2 -109.43,62.93 -188.43,86.18 -78.65,23.25 -161.75,34.88 -248.26,35.22zm-13.34 -864.83c-54.03,0 -93.7,17.1 -119.69,51.64 -25.64,34.54 -40.35,81.04 -44.45,139.86l2.05 4.79 292.38 0 0 -25.99c0,-56.08 -9.92,-98.48 -29.41,-127.21 -19.83,-28.73 -53.35,-43.09 -100.88,-43.09z"/>
   <path id="7" class="fil5" d="M44303.3 51089.4l0 -1458.82 477.72 0c181.24,0 322.13,33.85 423.36,100.88 101.22,67.02 151.83,167.22 151.83,299.9 0,69.42 -16.07,131.31 -48.22,185 -31.8,53.69 -82.07,94.39 -150.12,121.74 86.86,18.47 151.15,57.45 192.87,116.27 41.72,58.48 62.58,126.53 62.58,203.13 0,142.26 -47.88,249.97 -143.29,322.81 -95.41,72.84 -232.53,109.09 -410.7,109.09l-556.03 0zm338.54 -626.14l0 365.56 217.49 0c72.16,0 126.19,-14.02 162.09,-42.4 36.25,-28.38 54.38,-72.16 54.38,-130.97 0,-61.9 -16.08,-109.09 -47.88,-141.24 -31.46,-31.8 -83.78,-48.9 -156.62,-50.95l-10.94 0 -218.52 0zm0 -224.33l133.37 0c81.39,0 142.26,-14.36 182.27,-42.74 40.01,-28.39 60.18,-70.45 60.18,-126.53 0,-62.24 -19.49,-107.38 -58.13,-135.76 -38.99,-28.38 -98.15,-42.75 -178.51,-42.75l-139.18 0 0 347.78z"/>
   <path id="8" class="fil5" d="M46011.42 50611.67l1.02 7.87 5.81 0 179.54 -614.17 360.43 0 -431.56 1245.44c-33.52,80.02 -76.6,146.02 -129.27,198.34 -52.66,51.98 -136.78,77.97 -251.68,77.97 -29.07,0 -53.35,-1.71 -71.81,-5.48 -18.81,-3.76 -48.22,-10.6 -88.23,-20.51l41.03 -241.43c9.24,2.05 16.42,3.42 20.86,4.44 4.79,1.03 10.95,1.71 18.13,1.71 53.35,0 92.67,-7.86 117.29,-23.59 24.62,-15.73 43.09,-39.33 55.06,-70.79l27.01 -70.1 -374.79 -1096 359.75 0 161.41 606.3z"/>
   <path id="9" class="fil5" d="M47516.06 50589.45l0 499.95 -338.54 0 0 -1458.82 557.06 0c173.03,0 310.16,44.11 411.72,132.34 101.57,88.22 152.18,204.15 152.18,347.78 0,143.62 -50.61,259.21 -152.18,347.09 -101.56,87.89 -238.69,131.66 -411.72,131.66l-218.52 0zm0 -260.58l218.52 0c73.52,0 129.6,-20.18 168.25,-60.53 38.64,-40.35 58.13,-92.33 58.13,-155.59 0,-64.98 -19.15,-117.98 -57.79,-159.36 -38.3,-41.38 -94.38,-62.24 -168.59,-62.24l-218.52 0 0 437.72z"/>
   <path id="10" class="fil5" d="M49070.98 50805.91l-433.61 0 -84.12 283.49 -356.67 0 475.67 -1458.82 181.59 0 0 1.02 1.02 -1.02 181.24 0 476.7 1458.82 -356.67 0 -85.15 -283.49zm-355.64 -260.58l277.68 0 -136.45 -452.76 -5.81 0 -135.42 452.76z"/>
   <path id="11" class="fil5" d="M50369.42 50702.64c0,-51.98 -17.1,-91.99 -50.95,-119.69 -34.2,-27.7 -96.09,-57.11 -185.35,-88.57 -181.24,-58.82 -315.63,-121.4 -403.52,-188.08 -87.54,-66.34 -131.65,-162.09 -131.65,-286.91 0,-122.08 51.29,-220.91 153.2,-296.48 102.25,-75.58 232.19,-113.19 389.84,-113.19 166.19,0 300.24,38.98 401.81,116.61 101.56,77.97 150.46,187.39 147.38,329.31l-2.05 5.81 -328.63 0c0,-68.73 -18.8,-118.66 -56.08,-149.78 -37.61,-31.12 -94.04,-46.5 -169.27,-46.5 -61.55,0 -110.11,15.04 -145.34,45.13 -35.56,30.1 -53,67.03 -53,111.14 0,42.75 18.12,76.95 54.37,102.59 36.59,25.65 104.3,58.14 203.81,96.78 168.93,49.93 296.83,111.14 383.69,183.29 86.86,72.16 130.29,170.98 130.29,296.49 0,128.23 -49.93,228.77 -150.13,301.27 -100.19,72.49 -233.22,108.4 -398.73,108.74 -165.17,-0.34 -304.69,-38.98 -419.25,-116.95 -114.55,-77.63 -170.3,-200.05 -166.88,-367.27l2.06 -5.81 329.65 0c0,84.8 20.86,144.99 62.58,180.9 41.72,35.56 105.67,53.34 191.84,53.34 70.79,0 123.45,-14.02 158.33,-42.06 34.54,-28.04 51.98,-64.63 51.98,-110.11z"/>
   <polygon id="12" class="fil5" points="51251.01,51089.4 50913.15,51089.4 50913.15,49630.58 51251.01,49630.58 "/>
   <polygon id="13" class="fil5" points="52720.78,51089.4 52382.92,51089.4 51849.11,50171.57 51842.95,50173.62 51842.95,51089.4 51504.41,51089.4 51504.41,49630.58 51842.95,49630.58 52377.1,50547.39 52382.92,50545.33 52382.92,49630.58 52720.78,49630.58 "/>
   <path id="14" class="fil5" d="M53734.35 50805.91l-433.61 0 -84.12 283.49 -356.67 0 475.67 -1458.82 181.59 0 0 1.02 1.02 -1.02 181.24 0 476.7 1458.82 -356.67 0 -85.15 -283.49zm-355.64 -260.58l277.68 0 -136.45 -452.76 -5.81 0 -135.42 452.76z"/>
   <path id="15" class="fil5" d="M55481.79 50491.3c0,179.53 -57.1,327.61 -170.98,444.22 -113.87,116.61 -262.63,174.74 -446.26,175.08 -185.01,-0.34 -334.79,-58.47 -449.69,-175.08 -114.9,-116.61 -172.35,-264.69 -172.35,-444.22l0 -262.63c0,-178.84 57.11,-326.91 171.67,-443.52 114.56,-116.96 264,-175.43 448.32,-175.43 182.95,0 332.04,58.47 446.94,175.43 114.9,116.61 172.35,264.68 172.35,443.52l0 262.63zm-337.86 -264.34c0,-104.3 -24.28,-189.79 -73.52,-256.47 -48.9,-67.02 -118.32,-100.2 -207.91,-100.2 -91.31,0 -161.41,33.18 -209.97,99.52 -48.22,66.34 -72.5,152.17 -72.5,257.15l0 264.34c0,105.67 24.62,191.5 73.52,258.53 49.25,66.68 119.69,100.19 211,100.19 88.91,0 157.64,-33.51 206.54,-100.19 48.56,-67.03 72.84,-152.86 72.84,-258.53l0 -264.34z"/>
   <polygon id="16" class="fil5" points="56904.37,51089.4 56566.51,51089.4 56032.7,50171.57 56026.54,50173.62 56026.54,51089.4 55688,51089.4 55688,49630.58 56026.54,49630.58 56560.69,50547.39 56566.51,50545.33 56566.51,49630.58 56904.37,49630.58 "/>
   <path class="fil0" d="M36796.56 12056.54l20111.78 0c541.26,0 984.08,442.82 984.08,984.08l0 20111.78c0,541.26 -442.82,984.09 -984.08,984.09l-20111.78 0c-541.26,0 -984.09,-442.83 -984.09,-984.09l0 -20111.78c0,-541.26 442.83,-984.08 984.09,-984.08zm-19.77 964.31l20151.32 0 0 20151.32 -20151.32 0 0 -20151.32z"/>
   <path class="fil6" d="M38975.78 24266.98l0 -2340.87 878.37 0c178.73,0 322.04,23.43 430.47,70.84 107.89,47.4 192.35,120.42 253.38,219.05 61.57,98.08 92.09,201.06 92.09,308.95 0,99.72 -27.25,193.98 -81.19,282.26 -53.95,88.27 -135.68,159.65 -245.21,214.14 141.68,41.41 250.65,112.25 326.4,212.51 76.28,99.71 114.42,217.96 114.42,354.18 0,110.07 -23.43,211.97 -69.74,306.23 -46.32,94.27 -103.53,166.74 -171.65,217.96 -68.11,50.68 -153.66,89.36 -256.1,115.52 -102.98,26.15 -228.85,39.23 -378.15,39.23l-893.09 0zm310.59 -1356.79l506.21 0c137.32,0 235.94,-9.26 295.33,-27.24 79.01,-23.43 138.41,-62.67 178.19,-117.16 39.77,-54.49 59.93,-122.6 59.93,-204.88 0,-77.92 -18.52,-146.57 -56.12,-205.42 -37.05,-59.4 -90.45,-100.26 -159.65,-122.06 -69.21,-21.79 -187.99,-32.69 -355.82,-32.69l-468.07 0 0 709.45zm0 1082.16l583.04 0c100.26,0 170.55,-3.81 211.42,-11.44 70.84,-12.53 130.78,-33.78 178.73,-63.75 47.95,-29.97 87.18,-73.56 118.24,-130.78 31.06,-57.21 46.31,-123.14 46.31,-197.79 0,-87.73 -22.34,-163.47 -67.56,-228.32 -44.68,-64.84 -106.8,-110.06 -186.36,-136.22 -79.01,-26.15 -193.43,-39.23 -342.19,-39.23l-541.63 0 0 807.53z"/>
   <path id="1" class="fil6" d="M40912.89 24266.98l897.98 -2340.87 340.56 0 953.02 2340.87 -352.54 0 -270.82 -709.45 -985.71 0 -253.92 709.45 -328.57 0zm673.49 -961.19l797.72 0 -244.11 -648.97c-73.56,-197.26 -129.14,-360.18 -167.83,-488.78 -32.15,152.58 -75.19,302.42 -129.14,450.63l-256.64 687.12z"/>
   <path id="2" class="fil6" d="M43356.74 24266.98l0 -2340.87 1037.48 0c208.7,0 367.26,21.25 475.69,63.21 108.44,41.96 195.08,116.06 259.92,222.32 64.84,106.25 96.99,223.95 96.99,352.54 0,166.2 -53.94,306.23 -161.29,420.12 -107.34,113.88 -272.99,185.81 -497.49,216.87 82.28,39.23 144.4,78.46 186.9,116.6 90.45,82.83 176,186.9 256.1,311.68l404.86 637.53 -386.88 0 -309.5 -487.14c-89.91,-141.12 -164.56,-248.47 -222.86,-323.12 -58.85,-74.65 -111.16,-126.41 -157.47,-156.38 -45.78,-29.43 -93.18,-50.13 -141.13,-62.12 -34.88,-7.09 -92.09,-10.9 -172.19,-10.9l-358.54 0 0 1039.66 -310.59 0zm310.59 -1307.75l664.77 0c141.67,0 251.74,-14.71 331.3,-44.13 79.55,-28.88 140.04,-75.74 180.9,-140.59 41.42,-64.29 62.12,-134.04 62.12,-209.78 0,-110.62 -39.78,-202.16 -119.88,-273.54 -80.09,-71.38 -206.51,-106.8 -379.24,-106.8l-739.97 0 0 774.84z"/>
   <path id="3" class="fil6" d="M47378.61 23445.82l310.59 78.47c-64.84,254.46 -181.45,447.9 -349.82,581.4 -168.37,133.5 -374.35,200.52 -617.91,200.52 -251.74,0 -456.63,-51.22 -614.64,-154.2 -158.02,-102.44 -277.9,-251.2 -360.18,-445.73 -82.28,-195.07 -123.69,-403.76 -123.69,-627.17 0,-243.57 46.31,-456.08 139.49,-637.53 93.18,-181.45 225.59,-319.31 397.23,-413.57 171.64,-94.27 360.72,-141.13 566.69,-141.13 234.31,0 431.01,59.39 590.12,178.72 159.66,119.34 270.81,286.62 333.48,502.4l-304.05 71.92c-53.95,-170 -132.96,-294.24 -235.94,-371.61 -102.99,-77.92 -232.67,-116.61 -389.06,-116.61 -179.27,0 -329.66,43.04 -450.08,129.14 -120.42,86.09 -205.43,202.15 -253.92,347.1 -49.04,145.48 -73.56,295.33 -73.56,449.53 0,198.89 28.88,372.71 86.64,520.92 57.75,148.76 147.66,259.37 269.72,332.93 122.05,73.57 253.92,110.07 396.14,110.07 173.27,0 319.31,-50.13 439.18,-149.84 119.88,-100.26 201.07,-248.47 243.57,-445.73z"/>
   <path id="4" class="fil6" d="M47977.45 23127.6c0,-387.96 104.62,-692.01 313.31,-911.6 208.7,-219.6 477.88,-329.12 808.08,-329.12 216.33,0 410.85,51.76 584.68,154.75 173.27,102.98 305.68,246.84 396.68,431.56 91,184.17 136.77,393.41 136.77,627.17 0,237.03 -47.95,449.54 -143.85,636.44 -95.91,187.44 -231.58,329.11 -407.04,425.02 -176,96.44 -365.63,144.39 -568.87,144.39 -220.68,0 -417.39,-53.4 -591.21,-159.65 -173.28,-106.26 -305.14,-251.2 -394.51,-435.37 -89.36,-183.63 -134.04,-378.16 -134.04,-583.59zm320.4 5.45c0,281.71 75.74,503.49 227.22,665.32 151.48,161.83 341.65,243.02 570.5,243.02 233.22,0 424.48,-81.73 575.41,-245.2 150.39,-163.47 225.59,-395.59 225.59,-696.38 0,-190.16 -32.15,-356.36 -96.45,-498.03 -64.29,-141.67 -158.56,-251.74 -282.25,-329.66 -124.24,-77.92 -263.19,-117.15 -417.39,-117.15 -219.05,0 -407.58,75.19 -565.6,225.58 -158.02,150.39 -237.03,401.05 -237.03,752.5z"/>
   <path id="5" class="fil6" d="M50615.28 24266.98l0 -2340.87 806.45 0c181.99,0 320.94,10.9 416.84,33.24 134.04,31.06 248.47,87.18 343.28,167.83 123.7,104.62 215.78,237.57 276.81,399.95 61.57,162.38 92.09,348.19 92.09,556.88 0,177.64 -20.71,335.11 -62.12,472.43 -41.41,137.31 -94.81,251.19 -159.65,341.1 -65.39,89.91 -136.23,160.75 -213.6,211.97 -76.83,51.76 -170.01,90.99 -278.99,117.69 -109.52,26.7 -234.85,39.78 -376.52,39.78l-844.59 0zm310.59 -274.63l499.13 0c154.2,0 275.17,-14.16 362.9,-43.04 87.72,-28.88 157.47,-69.21 209.78,-121.52 73.02,-73.56 130.23,-172.73 171.1,-296.96 40.86,-124.24 61.57,-274.63 61.57,-451.72 0,-245.2 -40.32,-433.74 -120.42,-565.6 -80.1,-131.87 -177.64,-220.14 -292.61,-264.82 -82.82,-32.15 -216.32,-47.95 -400.5,-47.95l-490.95 0 0 1791.61z"/>
   <polygon id="6" class="fil6" points="52982.85,24266.98 52982.85,21926.11 54673.11,21926.11 54673.11,22200.74 53293.44,22200.74 53293.44,22920 54584.84,22920 54584.84,23194.63 53293.44,23194.63 53293.44,23992.35 54728.69,23992.35 54728.69,24266.98 "/>
  </g>
 </g>
</svg>
